<?xml version="1.0" standalone="no"?>
<!DOCTYPE svg PUBLIC "-//W3C//DTD SVG 20010904//EN"
 "http://www.w3.org/TR/2001/REC-SVG-20010904/DTD/svg10.dtd">
<svg version="1.0" xmlns="http://www.w3.org/2000/svg"
 width="378.000000pt" height="660.000000pt" viewBox="0 0 378.000000 660.000000"
 preserveAspectRatio="xMidYMid meet">

<g transform="translate(0.000000,660.000000) scale(0.100000,-0.100000)"
fill="#000000" stroke="none">
<path d="M1990 6587 c-117 -28 -177 -78 -207 -175 -15 -47 -18 -96 -18 -282
l0 -226 -65 -16 c-61 -15 -67 -14 -101 3 -50 25 -153 34 -233 20 -96 -17 -166
-51 -209 -101 -37 -43 -58 -50 -38 -12 6 12 11 44 11 72 0 41 -5 56 -25 75
-36 37 -62 32 -111 -20 l-42 -46 -16 23 c-9 13 -37 51 -61 85 -35 46 -57 96
-96 210 -28 81 -67 180 -88 218 -32 61 -41 70 -67 73 -18 2 -36 -3 -43 -12
-26 -31 -8 -166 40 -310 11 -32 19 -65 17 -73 -2 -8 -39 35 -83 94 -99 135
-185 223 -217 223 -34 0 -48 -18 -48 -62 0 -37 48 -149 70 -163 5 -3 10 -13
10 -21 0 -8 17 -38 38 -67 52 -70 76 -117 65 -128 -6 -6 -38 10 -79 39 -91 64
-200 121 -246 128 -30 5 -38 3 -48 -16 -19 -35 -5 -64 62 -125 63 -59 148
-129 174 -143 11 -6 12 -13 2 -40 -10 -26 -17 -32 -33 -28 -49 14 -203 27
-239 22 -73 -12 -87 -47 -36 -90 32 -26 109 -52 240 -82 83 -18 110 -29 110
-45 0 -18 61 -89 76 -89 8 0 14 -7 14 -15 0 -21 142 -155 193 -182 45 -24 87
-29 103 -13 7 7 32 -12 75 -54 93 -91 163 -111 283 -80 l25 6 -1 -94 c0 -117
30 -267 83 -408 39 -103 113 -245 150 -285 18 -20 41 -105 59 -211 4 -29 11
-60 14 -70 3 -11 10 -76 16 -146 12 -126 11 -127 -13 -170 -31 -54 -50 -117
-73 -238 -10 -57 -25 -103 -36 -116 -23 -26 -48 -139 -48 -219 0 -42 10 -86
31 -145 40 -110 41 -116 95 -445 65 -402 111 -568 211 -769 19 -37 48 -106 64
-152 35 -101 91 -224 117 -262 11 -15 25 -45 32 -67 23 -73 90 -189 160 -280
107 -137 130 -228 99 -377 -10 -51 -19 -105 -19 -120 0 -45 19 -42 40 6 22 52
30 59 22 20 -2 -14 0 -49 7 -78 6 -28 15 -121 21 -206 5 -85 14 -168 18 -184
5 -17 32 -50 63 -78 45 -39 67 -50 112 -58 l56 -11 75 52 c58 41 77 59 82 83
3 17 15 45 25 62 10 17 19 44 19 59 0 16 7 36 16 46 8 9 21 58 29 112 l15 95
-34 94 -34 95 5 156 c5 142 4 159 -12 177 -18 20 -17 20 34 20 47 0 58 5 119
51 77 59 78 61 93 114 6 22 17 47 24 55 8 9 19 37 25 63 6 27 18 60 28 75 14
22 17 50 16 192 -1 91 -6 197 -12 235 -7 39 -12 127 -12 197 0 140 -8 173 -42
183 -13 4 -26 13 -30 19 -11 16 -9 133 2 181 18 75 13 303 -7 381 l-19 72 27
30 c15 16 36 56 48 88 12 33 25 66 30 75 16 27 25 139 12 139 -20 0 -12 17 15
29 24 11 25 14 19 69 -13 105 -67 245 -131 334 -45 64 -68 118 -49 118 28 0
255 -79 302 -106 76 -42 123 -76 158 -111 36 -36 68 -42 103 -18 19 14 24 14
51 0 37 -19 80 -19 105 0 11 9 41 15 69 15 74 0 126 38 127 92 0 34 -27 44
-76 28 -39 -13 -64 -8 -64 14 0 20 11 25 66 32 60 7 98 29 120 69 33 61 0 92
-68 62 -56 -25 -67 -27 -96 -15 -40 17 -72 49 -88 87 -16 38 -17 34 59 112 29
29 36 76 15 97 -26 26 -64 14 -183 -56 -11 -6 -64 -20 -117 -31 l-97 -19 -98
65 c-54 35 -117 82 -141 103 -41 38 -207 153 -232 162 -9 3 2 37 34 113 32 75
53 141 64 208 16 93 20 102 64 156 108 128 143 252 98 342 -29 56 -106 148
-135 159 -12 4 -46 30 -76 58 -30 27 -64 54 -75 60 -12 6 -24 25 -28 43 -11
58 -139 178 -231 217 l-50 21 3 107 c2 74 9 122 22 158 40 105 22 393 -29 494
-22 43 -75 84 -139 106 -62 22 -186 28 -252 13z m335 -4142 c73 -116 97 -197
102 -340 3 -98 0 -142 -19 -237 l-24 -118 -64 65 c-35 36 -70 65 -77 65 -26 0
-31 35 -18 130 16 114 35 363 35 455 0 39 4 64 9 60 6 -3 31 -39 56 -80z"/>
</g>
</svg>
